<svg xmlns="http://www.w3.org/2000/svg" viewBox="0 0 700 360" width="700" height="360"
     font-family="-apple-system, BlinkMacSystemFont, 'Segoe UI', Helvetica, Arial, sans-serif">

  <defs>
    <marker id="arrow" markerWidth="8" markerHeight="6" refX="7" refY="3" orient="auto">
      <polygon points="0 0,8 3,0 6" fill="#22c55e"/>
    </marker>
    <marker id="arrowGray" markerWidth="8" markerHeight="6" refX="7" refY="3" orient="auto">
      <polygon points="0 0,8 3,0 6" fill="#94a3b8"/>
    </marker>
    <marker id="arrowBlue" markerWidth="8" markerHeight="6" refX="7" refY="3" orient="auto">
      <polygon points="0 0,8 3,0 6" fill="#3b82f6"/>
    </marker>
  </defs>

  <rect width="700" height="360" fill="#f8fafc" rx="14"/>

  <!-- AI Client -->
  <rect x="175" y="20" width="350" height="58" rx="10"
        fill="#dbeafe" stroke="#3b82f6" stroke-width="2"/>
  <text x="350" y="46" text-anchor="middle" fill="#1d4ed8" font-size="15" font-weight="600">Your AI Client</text>
  <text x="350" y="65" text-anchor="middle" fill="#3b82f6" font-size="11">Claude · Cursor · OpenClaw · Cline · any MCP client</text>

  <!-- Arrow down -->
  <line x1="350" y1="78" x2="350" y2="108"
        stroke="#3b82f6" stroke-width="2" marker-end="url(#arrowBlue)"/>
  <text x="365" y="97" fill="#93c5fd" font-size="10">stdio</text>

  <!-- Kitsune MCP box -->
  <rect x="20" y="112" width="660" height="122" rx="12"
        fill="#f0fdf4" stroke="#22c55e" stroke-width="2.5"/>
  <text x="350" y="138" text-anchor="middle" fill="#15803d" font-size="16" font-weight="700">🦊 Kitsune MCP</text>

  <!-- 6 core tool pills -->
  <rect x="129" y="150" width="70" height="24" rx="12" fill="#bbf7d0" stroke="#4ade80" stroke-width="1"/>
  <text x="164" y="167" text-anchor="middle" fill="#15803d" font-size="11.5">receive()</text>

  <rect x="209" y="150" width="58" height="24" rx="12" fill="#bbf7d0" stroke="#4ade80" stroke-width="1"/>
  <text x="238" y="167" text-anchor="middle" fill="#15803d" font-size="11.5">cast_off()</text>

  <rect x="277" y="150" width="72" height="24" rx="12" fill="#bbf7d0" stroke="#4ade80" stroke-width="1"/>
  <text x="313" y="167" text-anchor="middle" fill="#15803d" font-size="11.5">search()</text>

  <rect x="359" y="150" width="72" height="24" rx="12" fill="#bbf7d0" stroke="#4ade80" stroke-width="1"/>
  <text x="395" y="167" text-anchor="middle" fill="#15803d" font-size="11.5">inspect()</text>

  <rect x="441" y="150" width="48" height="24" rx="12" fill="#bbf7d0" stroke="#4ade80" stroke-width="1"/>
  <text x="465" y="167" text-anchor="middle" fill="#15803d" font-size="11.5">key()</text>

  <rect x="499" y="150" width="68" height="24" rx="12" fill="#bbf7d0" stroke="#4ade80" stroke-width="1"/>
  <text x="533" y="167" text-anchor="middle" fill="#15803d" font-size="11.5">status()</text>

  <!-- Morphed tools row -->
  <rect x="50" y="186" width="600" height="36" rx="7"
        fill="white" stroke="#bbf7d0" stroke-width="1.5" stroke-dasharray="6 3"/>
  <text x="350" y="209" text-anchor="middle" fill="#94a3b8" font-size="10.5">
    after receive() →  read_file  ·  git_log  ·  brave_web_search  ·  get_current_time  ·  …
  </text>

  <!-- Arrows to sources -->
  <line x1="155" y1="234" x2="115" y2="272"
        stroke="#22c55e" stroke-width="1.8" marker-end="url(#arrow)"/>
  <line x1="350" y1="234" x2="350" y2="272"
        stroke="#22c55e" stroke-width="1.8" marker-end="url(#arrow)"/>
  <line x1="545" y1="234" x2="575" y2="272"
        stroke="#94a3b8" stroke-width="1.8" stroke-dasharray="5 3" marker-end="url(#arrowGray)"/>

  <!-- Source boxes -->
  <rect x="20" y="272" width="190" height="72" rx="10"
        fill="#f6f8fa" stroke="#334155" stroke-width="1.8"/>
  <text x="115" y="297" text-anchor="middle" fill="#1e293b" font-size="13" font-weight="600">GitHub</text>
  <text x="115" y="315" text-anchor="middle" fill="#64748b" font-size="10">npx github:user/repo</text>
  <text x="115" y="331" text-anchor="middle" fill="#64748b" font-size="10">uvx --from git+https://…</text>

  <rect x="250" y="272" width="200" height="72" rx="10"
        fill="#fff1f2" stroke="#e11d48" stroke-width="1.8"/>
  <text x="350" y="297" text-anchor="middle" fill="#be123c" font-size="13" font-weight="600">npm · PyPI</text>
  <text x="350" y="315" text-anchor="middle" fill="#64748b" font-size="10">npx -y &lt;package&gt;</text>
  <text x="350" y="331" text-anchor="middle" fill="#64748b" font-size="10">uvx &lt;package&gt;</text>

  <rect x="490" y="272" width="190" height="72" rx="10"
        fill="#f8fafc" stroke="#94a3b8" stroke-width="1.5" stroke-dasharray="6 3"/>
  <text x="585" y="297" text-anchor="middle" fill="#64748b" font-size="13" font-weight="600">Remote Servers</text>
  <text x="585" y="315" text-anchor="middle" fill="#94a3b8" font-size="10">official · Smithery · Glama</text>
  <text x="585" y="331" text-anchor="middle" fill="#94a3b8" font-size="10">self-hosted · HTTP + SSE</text>

</svg>
